# xmcd CD database file
#
# Track frame offsets:
#	150
#	13150
#	25145
#	36545
#	48952
#	61120
#	73620
#	85492
#	99822
#	111692
#	123705
#	135292
#	147970
#	160192
#	171722
#	184860
#	197442
#	208877
#	221220
#	232987
#
# Disc length: 3273 seconds
#
# Revision: 4
# Processed by: cddbd v1.5.1PL2 Copyright (c) Steve Scherf et al.
# Submitted via: CDex 1.70beta2
#
DISCID=2d0cc714
DTITLE=Roy Acuff - The King Of Country Music
DYEAR=1993
DGENRE=Country
TTITLE0=Great Spreckled Bird
TTITLE1=Tell Mother I'll Be There
TTITLE2=Wait For The Light To Shine
TTITLE3=Wreck On The Highway
TTITLE4=I Saw The Light
TTITLE5=The Precious Jewel
TTITLE6=The Great Shining Light
TTITLE7=If I Could Hear My Mother Pray Again
TTITLE8=The Great Judgment Morning
TTITLE9=Great Spreckled Bird No. 2
TTITLE10=Wabash Cannonball
TTITLE11=Lonesome Old River Blues
TTITLE12=Be Honest With Me
TTITLE13=Fire Ball Mail
TTITLE14=Tennessee Waltz
TTITLE15=Mule Skinner Blues ( Blue Yodel #8)
TTITLE16=Low And Lonely
TTITLE17=Pins And Needles (In My Heart)
TTITLE18=Freight Train Blues
TTITLE19=Night Train To Memphis
EXTD=YEAR: 1993
EXTT0=
EXTT1=
EXTT2=
EXTT3=
EXTT4=
EXTT5=
EXTT6=
EXTT7=
EXTT8=
EXTT9=
EXTT10=
EXTT11=
EXTT12=
EXTT13=
EXTT14=
EXTT15=
EXTT16=
EXTT17=
EXTT18=
EXTT19=
PLAYORDER=
